# xmcd
#
# Track frame offsets:
#	150
#	8249
#	25779
#	43179
#	61930
#	78429
#	95979
#	99761
#	118767
#	135793
#	154182
#	176462
#	199893
#
# Disc length: 2989 seconds
#
# Revision: 1
# Processed by: cddbd v1.5.2PL0 Copyright (c) Steve Scherf et al.
# Submitted via: audiograbber 1.83.01
#
DISCID=a00bab0d
DTITLE=Thi'sl - Fallen King
DYEAR=2014
DGENRE=Christian Rap
TTITLE0=Broken Crown
TTITLE1=King Without A Crown (feat. Swade and Corey Paul)
TTITLE2=Chicago - Detroit
TTITLE3=King Of The Trap
TTITLE4=Keep Grinding (feat. Brian Owens)
TTITLE5=Rooks (feat. Spazzy Rocket)
TTITLE6=No Make Up
TTITLE7=Inside Out (feat. Laquan Green)
TTITLE8=Dream Team (I Had A DREAM)
TTITLE9=Do Something Bout It (feat. Nonna)
TTITLE10=Take My Life (feat. Flame and Json)
TTITLE11=Fallen King (feat. Marz)
TTITLE12=Be King (feat. Laquan Green)
EXTD=
EXTT0=
EXTT1=
EXTT2=
EXTT3=
EXTT4=
EXTT5=
EXTT6=
EXTT7=
EXTT8=
EXTT9=
EXTT10=
EXTT11=
EXTT12=
PLAYORDER=
